<svg role="img" aria-hidden="true" xmlns="http://www.w3.org/2000/svg" width="180" height="55" viewBox="0 0 192 58.294"><g fill="#002752"><path d="M192.001 48.539h-11.364l-4.464 9.755-4.672-9.748H160.53a.185.185 0 0 1-.036-.231c.5-.79.9-1.638 1.333-2.464.28-.532.588-1.052.858-1.59.063-.126.186-.235.074-.405-.052-.08.039-.193.09-.22.406-.22.528-.648.723-1.006.749-1.38 1.461-2.78 2.2-4.166.748-1.406 1.517-2.8 2.266-4.207s1.476-2.8 2.214-4.194c.247-.469.5-.937.748-1.4a1.121 1.121 0 0 0 .161-.486 817.913 817.913 0 0 0 2.6-4.861 10.222 10.222 0 0 0 1.291-2.433 8.944 8.944 0 0 0 1.035-1.79 10.241 10.241 0 0 1 .577 1.008c.437.733.829 1.493 1.24 2.239.225.408.463.826.669 1.253.247.511.557 1 .818 1.5.246.474.512.941.759 1.415s.536.927.775 1.394c.694 1.354 1.427 2.687 2.149 4.025q4.371 8.094 8.76 16.178c.053.1.114.192.171.289Z"></path><path d="M0 25.127h5.37c.039 0 .077-.058.12-.093.292.29.688.223 1.042.276a4.243 4.243 0 0 1 3.226 1.875 3.491 3.491 0 0 1 .448 2.616c-.432 2.042-1.472 2.917-3.591 3.245a14.882 14.882 0 0 1-2.265.138H3v5.288H0Zm2.96 5.581a11.749 11.749 0 0 0 3.047-.19 1.42 1.42 0 0 0 1.1-1.228 1.4 1.4 0 0 0-1.234-1.512 13.392 13.392 0 0 0-2.7-.158c-.073 0-.152-.011-.206.068Z"></path><path d="M96.997 27.698h2.531v10.755h-2.881l-4.883-7.026a.567.567 0 0 0-.182.52V38.448h-2.511v-10.76h2.792c.174 0 .339.016.4.2a6.59 6.59 0 0 0 .592.936c.065.126.206.121.292.2.043.467.4.76.643 1.11 1.011 1.481 2.055 2.94 3.088 4.406.021.029.048.053.119.13Z"></path><path d="M141.848 38.884a1.083 1.083 0 0 0-.4-.088 6.519 6.519 0 0 1-1.932-.255 5.543 5.543 0 0 1-3.047-1.825 6.285 6.285 0 0 1-1.123-2.42.421.421 0 0 0-.138-.243c.123-.113.1-.259.092-.415a5.769 5.769 0 0 1 1.375-4.314 6.065 6.065 0 0 1 2.038-1.409 4.722 4.722 0 0 1 1.557-.361 11.877 11.877 0 0 1 1.413-.081c.347 0 .7.115 1.023.1a6.09 6.09 0 0 1 1.031.216c.328.039.57.3.868.423a4.353 4.353 0 0 1 1.383.939 4.643 4.643 0 0 1 1.358 2.574 7.038 7.038 0 0 1 .15 1.543 5.588 5.588 0 0 1-1.545 3.678 6.166 6.166 0 0 1-3.138 1.635 2.381 2.381 0 0 0-.968.3m-.516-2.326a5.531 5.531 0 0 0 .845-.072 3.472 3.472 0 1 0-1.659-6.739 3.337 3.337 0 0 0-2.608 4.135 3.414 3.414 0 0 0 3.422 2.676"></path><path d="M47.242 27.773c1.551 0 3.078-.053 4.6.019a4.813 4.813 0 0 1 2.689.751 2.472 2.472 0 0 1 1.125 2.048c.017 1.826-.5 2.563-2.341 3.31l3.01 4.625H53.27c-.8-1.451-1.675-2.846-2.511-4.28h-.991v4.28h-2.526Zm2.476 4.278c.554 0 1.089-.015 1.623.005a3.12 3.12 0 0 0 1.02-.162.807.807 0 0 0 .668-.827c0-.689-.125-.935-.651-1.1a9.264 9.264 0 0 0-2.66-.154Z"></path><path d="M76.296 31.828v2.183H71.24v2.2h5.559v2.18H68.72V27.645h7.85v2.148h-5.309v2.035Z"></path><path d="M25.542 38.377v-10.73h7.88v2.145h-5.311v2.043h5.031v2.168h-5.049v2.19h5.546v2.187Z"></path><path d="m171.03 11.679 4.2 3.858c-.309.355-.661.644-.981.962-.595.592-1.243 1.125-1.826 1.732-.362.377-.8.691-1.145 1.1a.463.463 0 0 1-.518.122 3.518 3.518 0 0 1-.587-.188 8.591 8.591 0 0 0-1.452-.579c-.694-.252-1.374-.549-2.081-.767a8.419 8.419 0 0 0-1.112-.411l-5.1-1.947c3.611-1.316 7.109-2.64 10.6-3.882"></path><path d="M179.97 10.511c-.054.248-.256.343-.386.5a18.162 18.162 0 0 0-1.367 1.541c-.084.128-.26.193-.353.318-.4.543-.971.935-1.331 1.517a2.219 2.219 0 0 1-.469.4l-3.945-4.211L176.085 0l3.885 10.511"></path><path d="M181.11 11.601c1.756.666 3.508 1.338 5.266 1.995 1.723.644 3.451 1.272 5.177 1.907l.013.093-10.464 3.861-4.176-3.9 4.184-3.952"></path><path d="m123.253 29.393-1.924 1.3a3.265 3.265 0 0 0-4.3-.46c-1.31.932-1.832 2.348-1.368 3.271l-.128.191a3.388 3.388 0 0 0 2.479 2.722 2.892 2.892 0 0 0 3.354-1.124l2.055 1.341a4.6 4.6 0 0 1-1.532 1.407 6.319 6.319 0 0 1-2.1.679 6.725 6.725 0 0 1-3.392-.387 5.34 5.34 0 0 1-2.524-1.954 5.169 5.169 0 0 1-.969-2.983 4.773 4.773 0 0 1 .232-2c.043-.1-.045-.155-.06-.259.163-.04.168-.193.234-.321a5.675 5.675 0 0 1 1.542-2.048 5.828 5.828 0 0 1 2.007-1.015 10.478 10.478 0 0 1 2.84-.242 7.7 7.7 0 0 1 2.169.655 1.543 1.543 0 0 1 .519.386c.285.263.651.444.86.834"></path></g></svg>